
        <svg xmlns="http://www.w3.org/2000/svg" xmlns:xlink="http://www.w3.org/1999/xlink" version="1.1" width="3187.5" 
        height="832.3438920472798" viewBox="0 0 3187.5 832.3438920472798">
			
			<g transform="scale(9.375) translate(10, 10)">
				<defs id="SvgjsDefs6203"></defs><g id="SvgjsG6204" featureKey="symbolFeature-0" transform="matrix(0.32894736842105265,0,0,0.32894736842105265,0,0)" fill="#2b3595"><defs xmlns="http://www.w3.org/2000/svg"></defs><g xmlns="http://www.w3.org/2000/svg"><path class="fil0" d="M2 119l52 -69 11 12 41 -62 26 46 12 -18 38 65 8 -12 39 54 8 -15 67 32 -18 4 -45 -18 -9 16 -41 -50 -13 17 -33 -69c0,0 -12,33 -13,31 -1,-2 -27,-59 -27,-59l-42 66 -9 -24 -28 49 -24 4z" style="fill: #2b3595;"></path><path class="fil0" d="M0 132c21,-3 170,-7 173,14 5,28 -81,31 -82,38 -2,15 148,-1 164,-8l34 12c-22,8 -257,47 -233,-7 15,-17 89,-15 92,-33 1,-16 -115,-10 -148,-16l0 0z" style="fill: #2b3595;"></path></g></g><g id="SvgjsG6205" featureKey="nameFeature-0" transform="matrix(0.6165988106274102,0,0,0.6165988106274102,119.63004062541839,16.562708087750547)" fill="#111111"><path d="M3.4 40 l-2.8 0 l11.32 -28.8 l3.08 0 l11.04 28.8 l-2.8 0 l-3.32 -9.04 l-13.12 0 z M13.36 13.52 l-5.64 15.12 l11.28 0 z M31.96 28.84 l0 11.16 l-2.4 0 l0 -20.72 l2.4 0 l0 2.88 c1.92 -2.04 3.8 -3.44 6.68 -3.44 c2.52 0 4.84 0.8 6.32 2.96 c1 1.48 1.04 3.04 1.04 4.76 l0 13.56 l-2.4 0 l0 -13.52 c0 -3.72 -1.52 -5.6 -5.36 -5.6 c-2.96 0 -5 1.92 -5.76 4.04 c-0.48 1.32 -0.52 2.48 -0.52 3.92 z M51.64 47.88 l0 -2.24 c0.64 0.12 1.32 0.24 2 0.24 c2.72 0 3.12 -3.92 4.04 -5.72 l-8.04 -20.88 l2.68 0 l6.64 17.8 l6.64 -17.8 l2.6 0 l-7.72 20.44 c-1.96 5.2 -3.24 8.44 -6.56 8.44 c-0.84 0 -1.64 -0.12 -2.28 -0.28 z M79.08 38.12 l0 1.96 c-0.56 0.12 -1.6 0.48 -2.76 0.48 c-2.36 0 -3.68 -1.04 -3.68 -4.12 l0 -15.16 l-2.92 0 l0 -2 l2.92 0 l0 -5.76 l2.4 0 l0 5.76 l3.88 0 l0 2 l-3.88 0 l0 14.2 c0 2.04 0.08 2.92 2.08 2.92 c0.64 0 1.32 -0.12 1.96 -0.28 z M85.32000000000001 40 l-2.4 0 l0 -28.8 l2.4 0 l0 10.96 c1.92 -2.04 3.8 -3.44 6.68 -3.44 c2.52 0 4.84 0.8 6.32 2.96 c1 1.48 1.04 3.04 1.04 4.76 l0 13.56 l-2.4 0 l0 -13.52 c0 -3.72 -1.52 -5.6 -5.36 -5.6 c-2.96 0 -5 1.92 -5.76 4.04 c-0.48 1.32 -0.52 2.48 -0.52 3.92 l0 11.16 z M107.92 40 l-2.4 0 l0 -20.72 l2.4 0 l0 20.72 z M108.04 14.760000000000002 l-2.64 0 l0 -3.56 l2.64 0 l0 3.56 z M116.44 28.84 l0 11.16 l-2.4 0 l0 -20.72 l2.4 0 l0 2.88 c1.92 -2.04 3.8 -3.44 6.68 -3.44 c2.52 0 4.84 0.8 6.32 2.96 c1 1.48 1.04 3.04 1.04 4.76 l0 13.56 l-2.4 0 l0 -13.52 c0 -3.72 -1.52 -5.6 -5.36 -5.6 c-2.96 0 -5 1.92 -5.76 4.04 c-0.48 1.32 -0.52 2.48 -0.52 3.92 z M138.52 40 l-2.4 0 l0 -28.8 l2.4 0 l0 17.92 l10.16 -9.84 l3.28 0 l-7.76 7.48 l8.68 13.24 l-2.68 0 l-7.76 -11.56 l-3.92 3.72 l0 7.84 z M166.24 31.4 l2.64 0 c0.44 5.16 3.88 7.04 8.28 7.04 c5.16 0 7.32 -2.8 7.32 -5.96 c0 -8.92 -17.56 -3 -17.56 -14.32 c0 -4 3.32 -7.72 9.76 -7.72 c6.48 0 9.72 3.92 9.68 8.6 l-2.6 0 c0 -4.4 -3.4 -6.28 -7.08 -6.28 c-5.52 0 -7.52 3.4 -7.04 6.36 c1.24 7.44 17.56 2.08 17.56 13.24 c0 5.28 -3.88 8.4 -10.52 8.4 c-6 0 -10.44 -3.12 -10.44 -9.36 z M200.08 40.56 c-5.28 -0.08 -9.6 -3.68 -9.6 -10.92 c0 -6.04 3.2 -10.92 9.6 -10.92 c6.48 0 9.6 4.84 9.6 10.92 c0 6.56 -3.8 10.92 -9.6 10.92 z M207.12 29.64 c-0.04 -4.88 -1.96 -8.76 -7.04 -8.76 c-5.04 0 -7.04 4.28 -7.04 8.76 c0 5.16 2.44 8.76 7.04 8.76 c5.04 0 7.04 -4.32 7.04 -8.76 z M216.84 40 l-2.4 0 l0 -28.8 l2.4 0 l0 28.8 z M237 30.560000000000002 l0 -11.28 l2.4 0 l0 20.72 l-2.4 0 l0 -2.88 c-1.28 1.44 -3.04 3.44 -6.68 3.44 c-5.52 0 -7.36 -3.32 -7.36 -7.64 l0 -13.64 l2.4 0 l0 13.6 c0 3.56 1.56 5.52 5.32 5.52 c3.96 0 6.32 -3.28 6.32 -7.84 z M252.48000000000002 38.12 l0 1.96 c-0.56 0.12 -1.6 0.48 -2.76 0.48 c-2.36 0 -3.68 -1.04 -3.68 -4.12 l0 -15.16 l-2.92 0 l0 -2 l2.92 0 l0 -5.76 l2.4 0 l0 5.76 l3.88 0 l0 2 l-3.88 0 l0 14.2 c0 2.04 0.08 2.92 2.08 2.92 c0.64 0 1.32 -0.12 1.96 -0.28 z M259.08000000000004 40 l-2.4 0 l0 -20.72 l2.4 0 l0 20.72 z M259.20000000000005 14.760000000000002 l-2.64 0 l0 -3.56 l2.64 0 l0 3.56 z M273.44000000000005 40.56 c-5.28 -0.08 -9.6 -3.68 -9.6 -10.92 c0 -6.04 3.2 -10.92 9.6 -10.92 c6.48 0 9.6 4.84 9.6 10.92 c0 6.56 -3.8 10.92 -9.6 10.92 z M280.4800000000001 29.64 c-0.04 -4.88 -1.96 -8.76 -7.04 -8.76 c-5.04 0 -7.04 4.28 -7.04 8.76 c0 5.16 2.44 8.76 7.04 8.76 c5.04 0 7.04 -4.32 7.04 -8.76 z M289.84000000000003 28.84 l0 11.16 l-2.4 0 l0 -20.72 l2.4 0 l0 2.88 c1.92 -2.04 3.8 -3.44 6.68 -3.44 c2.52 0 4.84 0.8 6.32 2.96 c1 1.48 1.04 3.04 1.04 4.76 l0 13.56 l-2.4 0 l0 -13.52 c0 -3.72 -1.52 -5.6 -5.36 -5.6 c-2.96 0 -5 1.92 -5.76 4.04 c-0.48 1.32 -0.52 2.48 -0.52 3.92 z M308.64000000000004 33.519999999999996 l2.44 0 c0.76 3.56 2.6 4.88 6.2 4.88 c3.48 0 5.12 -1.84 5.12 -3.84 c0 -6 -13.28 -1.76 -13.28 -9.92 c0 -3.44 2.68 -5.92 7.28 -5.92 c4.48 0 7.4 1.84 8 6.52 l-2.44 0 c-0.44 -3.2 -2.6 -4.36 -5.6 -4.36 c-3.04 0 -4.68 1.44 -4.68 3.56 c0 5.64 13.28 2.12 13.28 10.08 c0 3.96 -3.56 6.04 -8.44 6.04 s-7.68 -3.12 -7.88 -7.04 z"></path></g>
			</g>
		</svg>
	